<?xml version="1.0" encoding="UTF-8"?>
<!-- Created with Inkscape (http://www.inkscape.org/) -->
<svg version="1.1" viewBox="0 0 49.684 45.898" xmlns="http://www.w3.org/2000/svg">
 <defs>
  <marker id="Arrow1Lend-6" overflow="visible" orient="auto">
   <path transform="matrix(-.8 0 0 -.8 -10 0)" d="m0 0 5-5-17.5 5 17.5 5z" fill="context-stroke" fill-rule="evenodd" stroke="context-stroke" stroke-width="1pt"/>
  </marker>
  <marker id="Arrow1Lend-6-8" overflow="visible" orient="auto">
   <path transform="matrix(-.8 0 0 -.8 -10 0)" d="m0 0 5-5-17.5 5 17.5 5z" fill="context-stroke" fill-rule="evenodd" stroke="context-stroke" stroke-width="1pt"/>
  </marker>
  <marker id="Arrow1Lend-6-83" overflow="visible" orient="auto">
   <path transform="matrix(-.8 0 0 -.8 -10 0)" d="m0 0 5-5-17.5 5 17.5 5z" fill="context-stroke" fill-rule="evenodd" stroke="context-stroke" stroke-width="1pt"/>
  </marker>
  <marker id="Arrow1Lend-6-4" overflow="visible" orient="auto">
   <path transform="matrix(-.8 0 0 -.8 -10 0)" d="m0 0 5-5-17.5 5 17.5 5z" fill="context-stroke" fill-rule="evenodd" stroke="context-stroke" stroke-width="1pt"/>
  </marker>
 </defs>
 <g transform="translate(-63.199 -138.96)">
  <g transform="rotate(180 63.463 32.804)">
   <title>Resistor</title>
   <g fill="none" stroke="#000" stroke-linecap="round" stroke-width=".26458px">
    <path d="m30.427-90.615v-2.6458"/>
    <path d="m30.427-98.552v-2.6458"/>
    <path d="m29.104-95.906v-2.6458h2.6458v5.2917h-2.6458v-2.6458" stroke-linejoin="round"/>
   </g>
   <title>Resistor</title>
  </g>
  <text x="100.15802" y="161.99492" fill="#000000" font-family="sans-serif" font-size="2.8222px" letter-spacing="0px" stroke-width=".26458" word-spacing="0px" style="line-height:1.25" xml:space="preserve"><tspan x="100.15802" y="161.99492">R1</tspan><tspan x="100.15802" y="165.52269"/></text>
  <g transform="rotate(180 63.463 38.095)">
   <title>Resistor</title>
   <g fill="none" stroke="#000" stroke-linecap="round" stroke-width=".26458px">
    <path d="m30.427-90.615v-2.6458"/>
    <path d="m30.427-98.552v-2.6458"/>
    <path d="m29.104-95.906v-2.6458h2.6458v5.2917h-2.6458v-2.6458" stroke-linejoin="round"/>
   </g>
   <title>Resistor</title>
  </g>
  <text x="100.15802" y="172.57825" fill="#000000" font-family="sans-serif" font-size="2.8222px" letter-spacing="0px" stroke-width=".26458" word-spacing="0px" style="line-height:1.25" xml:space="preserve"><tspan x="100.15802" y="172.57825">R2</tspan><tspan x="100.15802" y="176.10602"/></text>
  <g transform="translate(26.965 87.208)" fill="none" stroke="#000" stroke-linecap="round" stroke-width=".26458px">
   <path d="m51.594 73.427v1.3229"/>
   <path d="m51.594 76.073v-1.3229"/>
   <path d="m51.594 81.365v2.6458"/>
   <path d="m48.419 78.19h6.35"/>
   <path d="m49.477 79.248h4.2333"/>
   <path d="m51.594 78.19v-2.1167"/>
   <path d="m51.594 79.248v2.1167"/>
  </g>
  <path d="m78.559 160.64v-9.67h17.984l-0.04287 5.2571" fill="none" stroke="#000" stroke-width=".26458px"/>
  <path d="m78.559 171.22v11.605h17.894l0.04632-5.4342" fill="none" stroke="#000" stroke-width=".26458px"/>
  <text x="110.51588" y="159.59149" fill="#000000" font-family="sans-serif" font-size="2.8222px" letter-spacing="0px" stroke-width=".26458" word-spacing="0px" style="line-height:1.25" xml:space="preserve"><tspan x="110.51588" y="159.59149">I1</tspan><tspan x="110.51588" y="163.11926"/></text>
  <path d="m107.12 153.27v10.072" fill="none" marker-end="url(#Arrow1Lend-6)" stroke="#000" stroke-width=".26458px"/>
  <g transform="translate(-1.5773 5.2699)">
   <text x="88.712234" y="135.74442" fill="#000000" font-family="sans-serif" font-size="2.8222px" letter-spacing="0px" stroke-width=".26458" word-spacing="0px" style="line-height:1.25" xml:space="preserve"><tspan x="88.712234" y="135.74442">I</tspan><tspan x="88.712234" y="139.27219"/></text>
   <path d="m83.836 138.77h10.072" fill="none" marker-end="url(#Arrow1Lend-6-83)" stroke="#000" stroke-width=".26458px"/>
  </g>
  <text x="110.5269" y="176.21613" fill="#000000" font-family="sans-serif" font-size="2.8222px" letter-spacing="0px" stroke-width=".26458" word-spacing="0px" style="line-height:1.25" xml:space="preserve"><tspan x="110.5269" y="176.21613">I2</tspan><tspan x="110.5269" y="179.7439"/></text>
  <path d="m107.12 169.88v10.072" fill="none" marker-end="url(#Arrow1Lend-6)" stroke="#000" stroke-width=".26458px"/>
  <g transform="translate(-.48177)">
   <text x="85.518188" y="161.4825" fill="#000000" font-family="sans-serif" font-size="2.8222px" letter-spacing="0px" stroke-width=".26458" word-spacing="0px" style="line-height:1.25" xml:space="preserve"><tspan x="85.518188" y="161.4825">V1</tspan><tspan x="85.518188" y="165.01027"/></text>
   <path d="m92.731 166.27c-6.8705 0-11.295-4.0181-11.32-5.5254-0.04484-2.7164 4.8585-4.9032 11.32-4.9032" fill="none" marker-end="url(#Arrow1Lend-6)" stroke="#000" stroke-width=".26458px"/>
  </g>
  <text x="67.438492" y="166.89087" fill="#000000" font-family="sans-serif" font-size="2.8222px" letter-spacing="0px" stroke-width=".26458" word-spacing="0px" style="line-height:1.25" xml:space="preserve"><tspan x="67.438492" y="166.89087">V</tspan><tspan x="67.438492" y="170.41864"/></text>
  <g transform="translate(-18.08 5.4084)">
   <path d="m92.731 166.27c-6.8705 0-11.295-4.0181-11.32-5.5254-0.04484-2.7164 4.8585-4.9032 11.32-4.9032" fill="none" marker-end="url(#Arrow1Lend-6-4)" stroke="#000" stroke-width=".26458px"/>
  </g>
  <text x="85.036423" y="173.41039" fill="#000000" font-family="sans-serif" font-size="2.8222px" letter-spacing="0px" stroke-width=".26458" word-spacing="0px" style="line-height:1.25" xml:space="preserve"><tspan x="85.036423" y="173.41039">V2</tspan><tspan x="85.036423" y="176.93816"/></text>
  <g transform="translate(-.48177 11.928)">
   <path d="m92.731 166.27c-6.8705 0-11.295-4.0181-11.32-5.5254-0.04484-2.7164 4.8585-4.9032 11.32-4.9032" fill="none" marker-end="url(#Arrow1Lend-6-8)" stroke="#000" stroke-width=".26458px"/>
  </g>
 </g>
</svg>
