<?xml version="1.0" encoding="UTF-8"?>
<svg version="1.1" viewBox="0 0 26668 22677" xmlns="http://www.w3.org/2000/svg">
 <title>SVG Picture created as kicad-arduino-kitchen-timer.svg date 2022/06/11 06:55:41</title>
 <desc>Picture generated by Eeschema-SVG</desc>
 <g transform="translate(-9728.7 -52154)">
  <g stroke-linecap="round" stroke-linejoin="round" stroke-width="60">
   <g fill-opacity="0" stroke="#009600">
    <path d="m23500 55500v3e3"/>
    <path d="m15500 55500v2500"/>
    <path d="m13500 63500h2e3"/>
    <path d="m15500 62000v1500"/>
    <path d="m15500 63500v8e3"/>
    <path d="m31000 62000v1500"/>
    <path d="m23500 61500v2e3"/>
    <path d="m31000 55500v2500"/>
    <path d="m23500 69000v2500"/>
    <path d="m29000 63500h2e3"/>
    <path d="m31000 63500v1500"/>
    <path d="m31000 68000v3500"/>
    <path d="m23500 63500v1500"/>
    <path d="m21500 63500h2e3"/>
   </g>
   <g fill="#009600" stroke="#009600">
    <circle cx="23500" cy="63500" r="180"/>
    <circle cx="31000" cy="63500" r="180"/>
    <circle cx="15500" cy="63500" r="180"/>
   </g>
   <g fill-opacity="0">
    <g fill="none" stroke="#840000">
     <path d="m30700 55000 300-500"/>
     <path d="m31000 55500v-1e3"/>
     <path d="m31000 54500 300 500"/>
    </g>
    <g fill="#006464" stroke="#006464">
     <text x="31000" y="53749.961" font-size="666.65px" opacity="0" text-anchor="middle" lengthAdjust="spacingAndGlyphs" textLength="1491.1024">VCC</text>
     <g class="stroked-text">
      <desc>VCC</desc>
      <path d="m30333 53226 167 500 166-500"/>
      <path d="m31119 53678-24 24-72 24h-47l-72-24-47-48-24-47-24-96v-71l24-95 24-48 47-48 72-23h47l72 23 24 24"/>
      <path d="m31619 53678-24 24-72 24h-47l-72-24-47-48-24-47-24-96v-71l24-95 24-48 47-48 72-23h47l72 23 24 24"/>
     </g>
    </g>
    <g stroke="#006464">
     <g stroke-width="60">
      <g fill="none" stroke="#840000">
       <path d="m15200 55000 300-500"/>
       <path d="m15500 55500v-1e3"/>
       <path d="m15500 54500 300 500"/>
      </g>
      <g fill="#006464" stroke="#006464">
       <text x="15500" y="53749.961" font-size="666.65px" opacity="0" text-anchor="middle" lengthAdjust="spacingAndGlyphs" textLength="1488.5826">VCC</text>
       <g class="stroked-text">
        <desc>VCC</desc>
        <path d="m14833 53226 167 500 166-500"/>
        <path d="m15619 53678-24 24-72 24h-47l-72-24-47-48-24-47-24-96v-71l24-95 24-48 47-48 72-23h47l72 23 24 24"/>
        <path d="m16119 53678-24 24-72 24h-47l-72-24-47-48-24-47-24-96v-71l24-95 24-48 47-48 72-23h47l72 23 24 24"/>
       </g>
      </g>
      <g fill="#840000" stroke="#840000">
       <circle cx="15500" cy="59200" r="200"/>
       <path d="m15600 59400 600 1200" fill="none" stroke="#840000" stroke-linecap="round" stroke-linejoin="round" stroke-width="60"/>
       <circle cx="15500" cy="60800" r="200"/>
       <path d="m15500 59000v-1e3"/>
      </g>
      <g fill="#a90000" stroke="#a90000">
       <g transform="rotate(-90,15600,58500)">
        <text x="15600" y="59000" font-size="666.65px" opacity="0" text-anchor="middle" lengthAdjust="spacingAndGlyphs" textLength="536.18109">1</text>
       </g>
       <g class="stroked-text">
        <desc>1</desc>
        <path d="m16076 58357v285"/>
        <path d="m16076 58500h-500l71 47 48 48 24 47"/>
       </g>
      </g>
      <g fill="#840000" stroke="#840000">
       <path d="m15500 61000v1e3"/>
      </g>
      <g fill="#a90000" stroke="#a90000">
       <g transform="rotate(-90,15600,61500)">
        <text x="15600" y="62000" font-size="666.65px" opacity="0" text-anchor="middle" lengthAdjust="spacingAndGlyphs" textLength="536.18109">2</text>
       </g>
       <g class="stroked-text">
        <desc>2</desc>
        <path d="m15623 61642-23-23-24-48v-119l24-48 23-24 48-23h48l71 23 286 286v-309"/>
       </g>
      </g>
      <g fill="#006464" stroke="#006464">
       <text x="17293.15" y="59749.922" font-size="666.65px" opacity="0" text-anchor="middle" lengthAdjust="spacingAndGlyphs" textLength="1583.8188">SW2</text>
       <g class="stroked-text">
        <desc>SW2</desc>
        <path d="m16626 59702 71 24h119l48-24 24-24 24-48v-47l-24-48-24-24-48-24-95-23-47-24-24-24-24-48v-47l24-48 24-24 47-23h119l72 23"/>
        <path d="m17078 59226 119 500 96-358 95 358 119-500"/>
        <path d="m17674 59273 23-24 48-23h119l48 23 23 24 24 48v47l-24 72-285 286h309"/>
       </g>
       <text x="18162.205" y="60749.922" font-size="666.65px" opacity="0" text-anchor="middle" lengthAdjust="spacingAndGlyphs" textLength="3321.8896">SW_SPST</text>
       <g class="stroked-text">
        <desc>SW_SPST</desc>
        <path d="m16626 60702 71 24h119l48-24 24-24 24-48v-47l-24-48-24-24-48-24-95-23-47-24-24-24-24-48v-47l24-48 24-24 47-23h119l72 23"/>
        <path d="m17078 60226 119 500 96-358 95 358 119-500"/>
        <path d="m17578 60773h381"/>
        <path d="m18055 60702 71 24h119l48-24 23-24 24-48v-47l-24-48-23-24-48-24-95-23-48-24-24-24-23-48v-47l23-48 24-24 48-23h119l71 23"/>
        <path d="m18555 60726v-500h190l48 23 23 24 24 48v71l-24 48-23 24-48 23h-190"/>
        <path d="m19031 60702 71 24h119l48-24 24-24 23-48v-47l-23-48-24-24-48-24-95-23-48-24-23-24-24-48v-47l24-48 23-24 48-23h119l71 23"/>
        <path d="m19459 60226h286"/>
        <path d="m19602 60726v-500"/>
       </g>
      </g>
     </g>
     <g fill="#840000" stroke="#840000" stroke-width="100">
      <rect x="23100" y="59000" width="800" height="2e3" rx="0"/>
     </g>
     <g stroke-width="60">
      <g fill="#840000" stroke="#840000">
       <path d="m23500 59000v-500"/>
       <path d="m23500 61000v500"/>
      </g>
      <g fill="#006464" stroke="#006464">
       <text x="25019.33" y="59749.922" font-size="666.65px" opacity="0" text-anchor="middle" lengthAdjust="spacingAndGlyphs" textLength="1036.1812">R2</text>
       <g class="stroked-text">
        <desc>R2</desc>
        <path d="m24935 59726-166-239"/>
        <path d="m24650 59726v-500h190l48 23 24 24 23 48v71l-23 48-24 24-48 23h-190"/>
        <path d="m25126 59273 24-24 47-23h119l48 23 24 24 24 48v47l-24 72-286 286h310"/>
       </g>
       <text x="24781.26" y="60749.922" font-size="666.65px" opacity="0" text-anchor="middle" lengthAdjust="spacingAndGlyphs" textLength="560">R</text>
       <g class="stroked-text">
        <desc>R</desc>
        <path d="m24935 60726-166-239"/>
        <path d="m24650 60726v-500h190l48 23 24 24 23 48v71l-23 48-24 24-48 23h-190"/>
       </g>
      </g>
      <g fill="none" stroke="#840000">
       <path d="m23200 55000 300-500"/>
       <path d="m23500 55500v-1e3"/>
       <path d="m23500 54500 300 500"/>
      </g>
      <g fill="#006464" stroke="#006464">
       <text x="23500" y="53749.961" font-size="666.65px" opacity="0" text-anchor="middle" lengthAdjust="spacingAndGlyphs" textLength="1488.5826">VCC</text>
       <g class="stroked-text">
        <desc>VCC</desc>
        <path d="m22833 53226 167 500 166-500"/>
        <path d="m23619 53678-24 24-72 24h-47l-72-24-47-48-24-47-24-96v-71l24-95 24-48 47-48 72-23h47l72 23 24 24"/>
        <path d="m24119 53678-24 24-72 24h-47l-72-24-47-48-24-47-24-96v-71l24-95 24-48 47-48 72-23h47l72 23 24 24"/>
       </g>
      </g>
     </g>
     <g fill="#840000" stroke="#840000" stroke-width="100">
      <rect x="30600" y="65500" width="800" height="2e3" rx="0"/>
     </g>
     <g stroke-width="60">
      <g fill="#840000" stroke="#840000">
       <path d="m31000 65500v-500"/>
       <path d="m31000 67500v500"/>
      </g>
      <g fill="#006464" stroke="#006464">
       <text x="32519.33" y="66249.922" font-size="666.65px" opacity="0" text-anchor="middle" lengthAdjust="spacingAndGlyphs" textLength="1036.1812">R3</text>
       <g class="stroked-text">
        <desc>R3</desc>
        <path d="m32435 66226-166-239"/>
        <path d="m32150 66226v-500h190l48 23 24 24 23 48v71l-23 48-24 24-48 23h-190"/>
        <path d="m32602 65726h310l-167 190h71l48 24 24 24 24 47v119l-24 48-24 24-48 24h-142l-48-24-24-24"/>
       </g>
       <text x="32281.26" y="67249.922" font-size="666.65px" opacity="0" text-anchor="middle" lengthAdjust="spacingAndGlyphs" textLength="560">R</text>
       <g class="stroked-text">
        <desc>R</desc>
        <path d="m32435 67226-166-239"/>
        <path d="m32150 67226v-500h190l48 23 24 24 23 48v71l-23 48-24 24-48 23h-190"/>
       </g>
      </g>
      <g fill="#840000" stroke="#840000">
       <circle cx="31000" cy="59200" r="200"/>
       <path d="m31100 59400 600 1200" fill="none" stroke="#840000" stroke-linecap="round" stroke-linejoin="round" stroke-width="60"/>
       <circle cx="31000" cy="60800" r="200"/>
       <path d="m31000 59000v-1e3"/>
      </g>
      <g fill="#a90000" stroke="#a90000">
       <g transform="rotate(-90,31100,58500)">
        <text x="31100" y="59000" font-size="666.65px" opacity="0" text-anchor="middle" lengthAdjust="spacingAndGlyphs" textLength="536.18109">1</text>
       </g>
       <g class="stroked-text">
        <desc>1</desc>
        <path d="m31576 58357v285"/>
        <path d="m31576 58500h-500l71 47 48 48 24 47"/>
       </g>
      </g>
      <g fill="#840000" stroke="#840000">
       <path d="m31000 61000v1e3"/>
      </g>
      <g fill="#a90000" stroke="#a90000">
       <g transform="rotate(-90,31100,61500)">
        <text x="31100" y="62000" font-size="666.65px" opacity="0" text-anchor="middle" lengthAdjust="spacingAndGlyphs" textLength="536.18109">2</text>
       </g>
       <g class="stroked-text">
        <desc>2</desc>
        <path d="m31123 61642-23-23-24-48v-119l24-48 23-24 48-23h48l71 23 286 286v-309"/>
       </g>
      </g>
      <g fill="#006464" stroke="#006464">
       <text x="32793.148" y="59749.922" font-size="666.65px" opacity="0" text-anchor="middle" lengthAdjust="spacingAndGlyphs" textLength="1583.8188">SW4</text>
       <g class="stroked-text">
        <desc>SW4</desc>
        <path d="m32126 59702 71 24h119l48-24 24-24 24-48v-47l-24-48-24-24-48-24-95-23-47-24-24-24-24-48v-47l24-48 24-24 47-23h119l72 23"/>
        <path d="m32578 59226 119 500 96-358 95 358 119-500"/>
        <path d="m33412 59392v334"/>
        <path d="m33293 59202-119 357h309"/>
       </g>
       <text x="33662.203" y="60749.922" font-size="666.65px" opacity="0" text-anchor="middle" lengthAdjust="spacingAndGlyphs" textLength="3321.8896">SW_SPST</text>
       <g class="stroked-text">
        <desc>SW_SPST</desc>
        <path d="m32126 60702 71 24h119l48-24 24-24 24-48v-47l-24-48-24-24-48-24-95-23-47-24-24-24-24-48v-47l24-48 24-24 47-23h119l72 23"/>
        <path d="m32578 60226 119 500 96-358 95 358 119-500"/>
        <path d="m33078 60773h381"/>
        <path d="m33555 60702 71 24h119l48-24 23-24 24-48v-47l-24-48-23-24-48-24-95-23-48-24-24-24-23-48v-47l23-48 24-24 48-23h119l71 23"/>
        <path d="m34055 60726v-500h190l48 23 23 24 24 48v71l-24 48-23 24-48 23h-190"/>
        <path d="m34531 60702 71 24h119l48-24 24-24 23-48v-47l-23-48-24-24-48-24-95-23-48-24-23-24-24-48v-47l24-48 23-24 48-23h119l71 23"/>
        <path d="m34959 60226h286"/>
        <path d="m35102 60726v-500"/>
       </g>
      </g>
      <g stroke="#840000">
       <path d="m23500 71500v500h500l-500 500-500-500h500" fill="none" stroke="#840000" stroke-linecap="round" stroke-linejoin="round" stroke-width="60"/>
      </g>
      <g fill="#006464" stroke="#006464">
       <text x="23500" y="73749.961" font-size="666.65px" opacity="0" text-anchor="middle" lengthAdjust="spacingAndGlyphs" textLength="1583.8188">GND</text>
       <g class="stroked-text">
        <desc>GND</desc>
        <path d="m23119 73249-48-23h-71l-72 23-48 48-23 48-24 95v71l24 96 23 47 48 48 72 24h47l72-24 23-24v-167h-95"/>
        <path d="m23357 73726v-500l285 500v-500"/>
        <path d="m23880 73726v-500h120l71 23 48 48 23 48 24 95v71l-24 96-23 47-48 48-71 24h-120"/>
       </g>
      </g>
      <g stroke="#840000">
       <path d="m15500 71500v500h500l-500 500-500-500h500" fill="none" stroke="#840000" stroke-linecap="round" stroke-linejoin="round" stroke-width="60"/>
      </g>
      <g fill="#006464" stroke="#006464">
       <text x="15500" y="73749.961" font-size="666.65px" opacity="0" text-anchor="middle" lengthAdjust="spacingAndGlyphs" textLength="1583.8188">GND</text>
       <g class="stroked-text">
        <desc>GND</desc>
        <path d="m15119 73249-48-23h-71l-72 23-48 48-23 48-24 95v71l24 96 23 47 48 48 72 24h47l72-24 23-24v-167h-95"/>
        <path d="m15357 73726v-500l285 500v-500"/>
        <path d="m15880 73726v-500h120l71 23 48 48 23 48 24 95v71l-24 96-23 47-48 48-71 24h-120"/>
       </g>
      </g>
      <g stroke="#840000">
       <path d="m31000 71500v500h500l-500 500-500-500h500" fill="none" stroke="#840000" stroke-linecap="round" stroke-linejoin="round" stroke-width="60"/>
      </g>
      <g fill="#006464" stroke="#006464">
       <text x="31000" y="73749.961" font-size="666.65px" opacity="0" text-anchor="middle" lengthAdjust="spacingAndGlyphs" textLength="1583.8188">GND</text>
       <g class="stroked-text">
        <desc>GND</desc>
        <path d="m30619 73249-48-23h-71l-72 23-48 48-23 48-24 95v71l24 96 23 47 48 48 72 24h47l72-24 23-24v-167h-95"/>
        <path d="m30857 73726v-500l285 500v-500"/>
        <path d="m31380 73726v-500h120l71 23 48 48 23 48 24 95v71l-24 96-23 47-48 48-71 24h-120"/>
       </g>
      </g>
      <g fill="#840000" stroke="#840000">
       <circle cx="23500" cy="66200" r="200"/>
       <path d="m23600 66400 600 1200" fill="none" stroke="#840000" stroke-linecap="round" stroke-linejoin="round" stroke-width="60"/>
       <circle cx="23500" cy="67800" r="200"/>
       <path d="m23500 66000v-1e3"/>
      </g>
      <g fill="#a90000" stroke="#a90000">
       <g transform="rotate(-90,23600,65500)">
        <text x="23600" y="66000" font-size="666.65px" opacity="0" text-anchor="middle" lengthAdjust="spacingAndGlyphs" textLength="536.18109">1</text>
       </g>
       <g class="stroked-text">
        <desc>1</desc>
        <path d="m24076 65357v285"/>
        <path d="m24076 65500h-500l71 47 48 48 24 47"/>
       </g>
      </g>
      <g fill="#840000" stroke="#840000">
       <path d="m23500 68000v1e3"/>
      </g>
      <g fill="#a90000" stroke="#a90000">
       <g transform="rotate(-90,23600,68500)">
        <text x="23600" y="69000" font-size="666.65px" opacity="0" text-anchor="middle" lengthAdjust="spacingAndGlyphs" textLength="536.18109">2</text>
       </g>
       <g class="stroked-text">
        <desc>2</desc>
        <path d="m23623 68642-23-23-24-48v-119l24-48 23-24 48-23h48l71 23 286 286v-309"/>
       </g>
      </g>
      <g fill="#006464" stroke="#006464">
       <text x="25293.15" y="66749.922" font-size="666.65px" opacity="0" text-anchor="middle" lengthAdjust="spacingAndGlyphs" textLength="1583.8188">SW3</text>
       <g class="stroked-text">
        <desc>SW3</desc>
        <path d="m24626 66702 71 24h119l48-24 24-24 24-48v-47l-24-48-24-24-48-24-95-23-47-24-24-24-24-48v-47l24-48 24-24 47-23h119l72 23"/>
        <path d="m25078 66226 119 500 96-358 95 358 119-500"/>
        <path d="m25650 66226h309l-166 190h71l48 24 23 24 24 47v119l-24 48-23 24-48 24h-143l-47-24-24-24"/>
       </g>
       <text x="26162.205" y="67749.922" font-size="666.65px" opacity="0" text-anchor="middle" lengthAdjust="spacingAndGlyphs" textLength="3321.8896">SW_SPST</text>
       <g class="stroked-text">
        <desc>SW_SPST</desc>
        <path d="m24626 67702 71 24h119l48-24 24-24 24-48v-47l-24-48-24-24-48-24-95-23-47-24-24-24-24-48v-47l24-48 24-24 47-23h119l72 23"/>
        <path d="m25078 67226 119 500 96-358 95 358 119-500"/>
        <path d="m25578 67773h381"/>
        <path d="m26055 67702 71 24h119l48-24 23-24 24-48v-47l-24-48-23-24-48-24-95-23-48-24-24-24-23-48v-47l23-48 24-24 48-23h119l71 23"/>
        <path d="m26555 67726v-500h190l48 23 23 24 24 48v71l-24 48-23 24-48 23h-190"/>
        <path d="m27031 67702 71 24h119l48-24 24-24 23-48v-47l-23-48-24-24-48-24-95-23-48-24-23-24-24-48v-47l24-48 23-24 48-23h119l71 23"/>
        <path d="m27459 67226h286"/>
        <path d="m27602 67726v-500"/>
       </g>
      </g>
     </g>
    </g>
    <g fill="#840000" stroke="#840000">
     <text x="12937.48" y="63785.746" font-size="666.65px" opacity="0" text-anchor="end" lengthAdjust="spacingAndGlyphs" textLength="1821.8898">GPIO</text>
     <g class="stroked-text">
      <desc>GPIO</desc>
      <path d="m11526 63285-48-24h-71l-71 24-48 48-24 47-24 96v71l24 95 24 48 48 48 71 23h48l71-23 24-24v-167h-95"/>
      <path d="m11764 63761v-500h191l47 24 24 24 24 48v71l-24 48-24 24-47 23h-191"/>
      <path d="m12264 63761v-500"/>
      <path d="m12597 63261h96l47 24 48 48 24 95v167l-24 95-48 48-47 23h-96l-47-23-48-48-24-95v-167l24-95 48-48 47-24"/>
     </g>
     <path d="m13500 63500-437.52-500.16h-2262.1v1000.3h2262.1z" fill="none" stroke="#840000" stroke-linecap="round" stroke-linejoin="round" stroke-width="60"/>
     <text x="28437.48" y="63785.746" font-size="666.65px" opacity="0" text-anchor="end" lengthAdjust="spacingAndGlyphs" textLength="1824.4094">GPIO</text>
     <g class="stroked-text">
      <desc>GPIO</desc>
      <path d="m27026 63285-48-24h-71l-71 24-48 48-24 47-24 96v71l24 95 24 48 48 48 71 23h48l71-23 24-24v-167h-95"/>
      <path d="m27264 63761v-500h191l47 24 24 24 24 48v71l-24 48-24 24-47 23h-191"/>
      <path d="m27764 63761v-500"/>
      <path d="m28097 63261h96l47 24 48 48 24 95v167l-24 95-48 48-47 23h-96l-47-23-48-48-24-95v-167l24-95 48-48 47-24"/>
     </g>
     <path d="m29000 63500-437.52-500.16h-2262.1v1000.3h2262.1z" fill="none" stroke="#840000" stroke-linecap="round" stroke-linejoin="round" stroke-width="60"/>
     <text x="20937.48" y="63785.746" font-size="666.65px" opacity="0" text-anchor="end" lengthAdjust="spacingAndGlyphs" textLength="1824.4094">GPIO</text>
     <g class="stroked-text">
      <desc>GPIO</desc>
      <path d="m19526 63285-48-24h-71l-71 24-48 48-24 47-24 96v71l24 95 24 48 48 48 71 23h48l71-23 24-24v-167h-95"/>
      <path d="m19764 63761v-500h191l47 24 24 24 24 48v71l-24 48-24 24-47 23h-191"/>
      <path d="m20264 63761v-500"/>
      <path d="m20597 63261h96l47 24 48 48 24 95v167l-24 95-48 48-47 23h-96l-47-23-48-48-24-95v-167l24-95 48-48 47-24"/>
     </g>
     <path d="m21500 63500-437.52-500.16h-2262.1v1000.3h2262.1z" fill="none" stroke="#840000" stroke-linecap="round" stroke-linejoin="round" stroke-width="60"/>
    </g>
   </g>
  </g>
 </g>
</svg>
